<?xml version="1.0" encoding="UTF-8"?>
<svg width="24px" height="24px" viewBox="0 0 24 24" version="1.1" xmlns="http://www.w3.org/2000/svg" xmlns:xlink="http://www.w3.org/1999/xlink">
    <!-- Generator: Sketch 48.2 (47327) - http://www.bohemiancoding.com/sketch -->
    <title>btn_+</title>
    <desc>Created with Sketch.</desc>
    <defs></defs>
    <g id="04-风险扫描" stroke="none" stroke-width="1" fill="none" fill-rule="evenodd">
        <g id="btn_+">
            <g id="ic_add_circle_outline">
                <g id="Icon-24px">
                    <polygon id="Shape" points="0 0 24 0 24 24 0 24"></polygon>
                    <path d="M12,2 C6.48,2 2,6.48 2,12 C2,17.52 6.48,22 12,22 C17.52,22 22,17.52 22,12 C22,6.48 17.52,2 12,2 L12,2 Z" id="Path" stroke="#333333" stroke-width="1.6" fill="#FFFFFF"></path>
                    <polygon id="Path" fill="#333333" points="13 7 11 7 11 11 7 11 7 13 11 13 11 17 13 17 13 13 17 13 17 11 13 11"></polygon>
                </g>
            </g>
        </g>
    </g>
</svg>